<?xml version="1.0" encoding="utf-8"?>
<!DOCTYPE svg PUBLIC "-//W3C//DTD SVG 1.0//EN" "http://www.w3.org/TR/2001/REC-SVG-20010904/DTD/svg10.dtd">
<svg version="1.0" xmlns="http://www.w3.org/2000/svg" width="385px" height="369px" viewBox="0 0 385 369" preserveAspectRatio="xMidYMid meet">
 <g fill="#7287c2">
  <path d="M 60 364 c -0.40 -0.30 -3.10 -0.90 -6 -1.45 -8.60 -1.55 -9.70 -1.90 -15.70 -4.85 -2.25 -1.10 -4.10 -2.40 -4.30 -2.95 -0.20 -0.55 -1.75 -2.50 -3.45 -4.35 -1.70 -1.80 -3.05 -3.50 -3.05 -3.75 0 -0.60 -2.15 -2.65 -2.80 -2.65 -0.25 0 -0.70 -0.50 -0.95 -1.10 -0.30 -0.65 -1.45 -1.75 -2.60 -2.50 -4.25 -2.85 -8.35 -7.55 -11.95 -13.70 -3.90 -6.60 -4.30 -7.55 -5.55 -12.20 -0.80 -3.05 -0.85 -12 -1 -131.25 -0.20 -127.10 -0.10 -137.25 1.40 -137.25 0.25 0 0.45 -0.75 0.45 -1.65 0 -0.90 0.45 -2.50 1 -3.60 0.55 -1.10 1 -2.40 1 -2.90 0 -1.30 6.30 -12.65 8.65 -15.60 2.80 -3.45 8.95 -9.75 9.60 -9.75 0.25 0 1.55 -1.10 2.85 -2.45 1.40 -1.45 3.95 -3.25 6.50 -4.55 2.30 -1.20 4.75 -2.55 5.50 -3.10 0.70 -0.50 2.35 -1.05 3.60 -1.20 1.30 -0.20 2.45 -0.55 2.60 -0.75 0.40 -0.65 291.55 -0.60 291.95 0.05 0.15 0.30 0.95 0.50 1.80 0.50 0.80 0 4 1.35 7.35 3.05 16.50 8.60 27.95 23.25 32.35 41.20 2 8.15 1.95 4.70 2.10 135.40 0.10 72.35 -0.05 124.85 -0.30 124.85 -0.35 0 -1.20 5.55 -1.30 8.55 0 0.45 -0.25 1.10 -0.55 1.50 -0.25 0.40 -0.90 1.65 -1.40 2.80 -0.55 1.15 -1.35 2.50 -1.85 2.95 -0.55 0.50 -0.95 1.15 -0.95 1.55 0 0.35 -0.80 2.25 -1.75 4.15 -1.30 2.55 -1.75 4.10 -1.75 5.90 0 2.30 -0.25 2.70 -4.30 7.75 -4.75 6 -5.40 6.50 -9.10 7.60 -1.40 0.45 -2.70 1 -2.85 1.30 -0.20 0.25 -1.90 1.25 -3.80 2.20 -2.45 1.25 -3.95 2.45 -5.30 4.20 -1.25 1.60 -2.70 2.80 -4.15 3.40 -3 1.30 -9.80 2.95 -15.10 3.70 -2.45 0.35 -4.40 0.80 -4.40 1.05 0 0.55 -261.55 0.45 -262.50 -0.10 z  m 156 -66.90 c 0.40 -0.65 5.35 -1.60 8.05 -1.60 1.55 0 3 -0.35 3.80 -0.85 1.20 -0.80 3.15 -0.90 18 -1.05 16.70 -0.15 16.70 -0.15 16.55 -5 -0.15 -4.85 -0.15 -4.85 -2.75 -5 -2.65 -0.15 -2.65 -0.15 -2.65 -2 0 -1.60 0.55 -2.45 3.55 -5.85 3.75 -4.20 7.45 -10.25 7.45 -12.10 0 -0.65 0.20 -1.15 0.40 -1.15 0.70 0 1.50 -3.40 2.10 -9 1.40 -13.40 -4.10 -26.50 -14.20 -33.70 -5.50 -3.95 -15.70 -8.30 -19.40 -8.30 -0.80 0 -1.80 -0.20 -2.30 -0.45 -1.60 -0.90 -5.55 -1.55 -9.20 -1.55 -2.05 0 -3.90 -0.20 -4.15 -0.45 -1.15 -1.10 -9.95 -1.55 -29.05 -1.55 -11.10 0 -20.25 -0.20 -20.40 -0.45 -0.15 -0.20 -1.35 -0.55 -2.65 -0.70 -5.15 -0.65 -6.95 -0.95 -8.40 -1.60 -5.25 -2.30 -6.50 -3.05 -7.85 -4.95 -1.45 -2 -1.50 -2.15 -1.15 -6.30 0.50 -6.20 2.80 -9.25 9.75 -12.75 3.95 -2 7.75 -2.35 11.50 -1 3.55 1.25 12.40 2.40 19 2.40 19.70 0.15 36.05 -5.70 47.30 -16.95 2 -2 4.50 -4.95 5.60 -6.55 2.35 -3.45 5.60 -9.80 5.60 -10.90 0 -0.45 0.30 -1.15 0.70 -1.55 0.40 -0.40 0.85 -1.80 1.05 -3.10 0.50 -4.15 1.40 -8.35 1.85 -8.95 0.25 -0.30 0.35 -3 0.25 -6 -0.35 -10.10 -3.80 -21.40 -9.15 -30 -2.25 -3.60 -2.25 -3.60 -2.10 -11.25 0.15 -7.65 0.15 -7.65 2.65 -8.85 1.40 -0.70 3.65 -1.40 5 -1.60 1.40 -0.20 3.95 -0.75 5.75 -1.15 2.45 -0.60 4.60 -0.70 8.75 -0.50 4.65 0.30 5.60 0.20 6.15 -0.45 0.50 -0.60 0.60 -2.95 0.45 -10.10 -0.15 -7.80 -0.35 -9.45 -1.05 -10.15 -0.50 -0.50 -0.80 -0.60 -0.80 -0.20 0 0.45 -1.35 0.60 -4.70 0.60 -4.75 0 -9.80 0.80 -9.80 1.60 0 0.20 -0.75 0.40 -1.65 0.40 -1.85 0 -7.95 2.25 -11.60 4.30 -3.35 1.90 -8.95 7.35 -12 11.65 -2.50 3.55 -2.50 3.55 -12.85 3.55 -5.75 0 -10.40 -0.20 -10.40 -0.45 0 -1.70 -19.45 -2.30 -25.75 -0.80 -1.90 0.45 -4.90 1 -6.65 1.25 -1.75 0.20 -3.45 0.65 -3.75 0.95 -0.30 0.30 -1.35 0.55 -2.35 0.55 -1 0 -2.65 0.45 -3.75 1 -1.10 0.55 -2.25 1 -2.60 1 -1.35 0 -12.05 5.45 -15.05 7.65 -1.70 1.30 -3.30 2.35 -3.55 2.35 -0.20 0 -1.50 1.25 -2.80 2.75 -1.35 1.50 -2.75 2.75 -3.10 2.75 -0.40 0 -0.90 0.55 -1.15 1.25 -0.25 0.70 -0.65 1.25 -0.85 1.25 -0.25 0 -1.05 1 -1.90 2.25 -0.80 1.20 -1.65 2.25 -1.85 2.25 -0.25 0 -0.40 0.30 -0.40 0.70 0 0.40 -0.90 2.25 -2 4.10 -1.10 1.90 -2 3.70 -2 4.05 0 0.35 -0.20 0.65 -0.40 0.65 -0.50 0 -1.60 3.40 -1.60 4.90 0 0.55 -0.20 1.10 -0.50 1.20 -0.25 0.10 -0.75 2.35 -1.05 5 -1.20 9.80 1.35 19.25 8.20 30.45 2.25 3.65 7.65 9.15 13.20 13.25 4.75 3.60 5.65 4.50 5.65 5.60 0 2.40 -0.60 3.55 -2 4.05 -2.10 0.70 -6.75 3.80 -9.35 6.20 -2.10 1.95 -6.15 7.30 -6.15 8.15 0 0.20 -0.35 0.75 -0.80 1.25 -0.55 0.60 -0.90 2.25 -1.05 5.15 -0.25 3.90 -0.20 4.45 1.20 7.40 1.95 4.10 4.95 7.85 8.40 10.45 2.55 1.95 2.75 2.20 2.75 4.20 0 2.10 0 2.10 -5.90 5.90 -6.95 4.50 -13.25 10.35 -15.30 14.35 -0.80 1.50 -1.60 2.85 -1.80 3 -0.15 0.15 -0.60 1.05 -1 2 -0.40 0.95 -0.95 1.90 -1.20 2.10 -0.35 0.20 -0.55 2.55 -0.55 5.75 0 5.35 0 5.45 2.15 9.65 1.30 2.60 4.45 7.15 8.05 11.75 4.75 6 6.75 8.15 10.10 10.60 4.90 3.65 11.25 6.90 17.95 9.15 2.60 0.90 5.20 1.80 5.75 2 0.55 0.25 2.35 0.55 3.95 0.70 1.65 0.20 3.65 0.65 4.50 1.05 1 0.50 3.75 0.80 7.80 0.90 9.40 0.30 37.15 -0.15 37.50 -0.55 z "/>
 </g>
 <g fill="#fdfdfe">
  <path d="M 42.50 367.45 c 0 -0.95 -0.50 -2.15 -1.25 -3.05 -0.70 -0.80 -1.25 -1.85 -1.25 -2.35 0 -0.45 -1.25 -2.05 -2.75 -3.55 -2.25 -2.20 -4.25 -4.95 -4.25 -5.80 0 -0.05 2 1 4.45 2.35 2.45 1.35 4.65 2.45 4.80 2.45 0.20 0 1.05 0.30 1.90 0.70 2.20 0.95 5.25 1.75 11.35 2.85 2.90 0.55 5.65 1.20 6.10 1.45 1.10 0.65 259.40 0.70 259.40 0.05 0 -0.20 2.05 -0.70 4.55 -1.05 2.50 -0.30 6.05 -1.05 7.90 -1.60 1.80 -0.55 3.75 -1.05 4.30 -1.10 0.55 -0.05 2.55 -0.80 4.45 -1.70 1.90 -0.90 3.55 -1.50 3.70 -1.40 0.25 0.30 -2.40 3.75 -3.65 4.80 -0.50 0.40 -0.75 1.50 -0.75 3.20 0 3.35 1.30 4.80 4.30 4.80 1.10 0 2.20 -0.20 2.45 -0.45 0.30 -0.30 1 -0.20 1.75 0.20 1.05 0.60 -20.75 0.70 -153.10 0.75 -154.40 0 -154.40 0 -154.40 -1.55 z "/>
  <path d="M 378.30 368.60 c 0.25 -0.25 1.90 -0.30 3.70 -0.10 3.25 0.35 3.25 0.35 -0.45 0.40 -2.05 0.05 -3.55 -0.10 -3.25 -0.30 z "/>
  <path d="M 384 354.90 c 0 -0.35 0.25 -1 0.50 -1.40 0.40 -0.60 0.50 -0.45 0.50 0.65 0 0.75 -0.20 1.35 -0.50 1.35 -0.25 0 -0.50 -0.30 -0.50 -0.60 z "/>
  <path d="M 357.50 348.15 c 0 -0.15 1.50 -1.75 3.40 -3.60 1.85 -1.80 4.80 -5.20 6.55 -7.55 1.75 -2.35 3.35 -4.30 3.60 -4.40 0.90 -0.35 0.40 3.20 -0.70 5.20 -1.60 2.95 -8.65 9.45 -10.95 10.10 -1.05 0.30 -1.90 0.40 -1.90 0.25 z "/>
  <path d="M 9 326.35 c -4.40 -7.70 -6.15 -9.85 -7.80 -9.85 -1.20 0 -1.20 0 -1.20 -140.50 0 -140.50 0 -140.50 1.20 -140.50 0.90 0 3.70 -2.70 11.85 -11.45 5.90 -6.30 11.05 -11.50 11.55 -11.50 0.45 -0.05 1.75 -1.15 2.85 -2.50 1.65 -1.95 2.05 -2.85 2.05 -4.40 0 -2.05 -1.50 -4.15 -3.05 -4.15 -0.40 -0.05 -1.25 -0.35 -1.95 -0.75 -1.10 -0.65 0.45 -0.70 13.25 -0.70 14.15 0.05 14.45 0.05 12.25 0.85 -1.25 0.45 -2.60 1.05 -3 1.35 -0.40 0.25 -1.60 0.50 -2.60 0.55 -1 0.05 -2.50 0.55 -3.25 1.10 -0.75 0.55 -3 1.80 -5 2.80 -5.40 2.70 -13 9.10 -17.55 14.70 -3.95 4.90 -10.05 15.20 -10.45 17.65 -0.10 0.75 -0.65 2.20 -1.15 3.25 -0.55 1.05 -1 2.65 -1 3.55 0 0.90 -0.20 1.65 -0.45 1.65 -1.45 0 -1.55 10.50 -1.40 135.75 0.15 97.40 0.30 126.95 0.75 128.50 0.35 1.10 0.75 2.55 0.90 3.25 0.75 3.60 3.10 9.75 5.05 13.40 3.55 6.55 2.30 5.15 -1.85 -2.05 z "/>
  <path d="M 376.80 319.05 c -0.20 -0.30 -0.05 -0.55 0.30 -0.55 0.45 0 0.45 -0.15 -0.10 -0.50 -0.60 -0.40 -0.60 -0.50 0.25 -0.50 0.85 0 0.85 -0.10 0.25 -0.50 -0.65 -0.40 -0.60 -0.50 0.15 -0.50 1 0 1.05 0.35 0.15 1.95 -0.40 0.75 -0.80 1 -1 0.60 z "/>
  <path d="M 378.25 315.50 c -0.45 -0.75 0.80 -11.50 1.35 -11.50 0.20 0 0.35 -55.50 0.25 -123.35 -0.15 -129.10 -0.10 -125.75 -2.10 -133.90 -2.65 -10.80 -8.20 -21 -15.95 -29.15 -5.45 -5.75 -19.30 -14.75 -22.70 -14.70 -0.75 0 -1.80 -0.25 -2.35 -0.55 -1.95 -1.10 -4.50 -1.85 -5.35 -1.55 -0.50 0.15 -0.90 0.05 -0.90 -0.25 0 -0.40 3.95 -0.55 12.50 -0.55 12.50 0 12.50 0 12.50 2.15 0 2 0.20 2.30 5.15 7.25 2.85 2.80 5.40 5.10 5.70 5.10 0.60 0 3.15 2.65 3.15 3.30 0 0.25 1 1.50 2.25 2.70 1.25 1.20 2.25 2.50 2.25 2.85 0 0.35 0.80 1.25 1.75 2 1.50 1.20 1.75 1.70 1.75 3.50 0 1.15 0.25 2.25 0.50 2.40 0.30 0.15 0.50 1.50 0.50 2.95 0 3.40 1.30 4.80 4.40 4.80 2.10 0 2.10 0 2.10 137 0 137 0 137 -1.60 137 -1.10 0 -2.10 0.45 -3.20 1.55 -1.10 1.05 -1.70 1.35 -1.95 0.95 z "/>
  <path d="M 177 299.15 c -4.05 -0.10 -6.80 -0.45 -7.80 -0.90 -0.85 -0.40 -2.85 -0.85 -4.50 -1.05 -1.60 -0.15 -3.40 -0.45 -3.95 -0.70 -0.55 -0.20 -3.15 -1.10 -5.75 -2 -6.80 -2.30 -13.10 -5.50 -18 -9.20 -3.40 -2.55 -5.45 -4.65 -9.95 -10.45 -8.45 -10.70 -10.55 -15 -10.75 -21.60 -0.15 -4.05 0.50 -8.75 1.15 -8.75 0.20 0 0.65 -0.85 1 -1.85 0.40 -1.05 1 -2.15 1.40 -2.55 0.35 -0.35 0.55 -0.90 0.40 -1.15 -0.20 -0.25 -0.10 -0.45 0.10 -0.45 0.25 0 0.85 -0.85 1.40 -1.85 1.60 -3.15 8.50 -9.40 14.85 -13.50 3.25 -2.10 5.90 -4.10 5.90 -4.40 0 -0.35 -1.25 -1.55 -2.75 -2.70 -3.40 -2.55 -6.45 -6.30 -8.35 -10.30 -1.30 -2.75 -1.40 -3.40 -1.35 -8.35 0.05 -3.40 0.30 -5.75 0.75 -6.50 0.35 -0.60 0.80 -1.50 1 -1.90 1.05 -2.15 4.35 -6.50 6.35 -8.35 2.60 -2.40 7.25 -5.50 9.35 -6.20 2.90 -1.05 2.30 -2.15 -3.70 -6.65 -5.45 -4.10 -10.85 -9.55 -13.15 -13.25 -2.70 -4.35 -6.25 -12.15 -7.15 -15.80 -0.60 -2.20 -1.15 -6.15 -1.35 -8.75 -0.30 -4.95 0.55 -13.60 1.40 -13.90 0.25 -0.10 0.45 -0.70 0.45 -1.30 0 -1.20 0.95 -4.40 1.45 -4.80 0.35 -0.30 2.55 -4.85 2.55 -5.25 0 -0.15 0.45 -0.75 0.95 -1.35 0.55 -0.55 0.90 -1.20 0.80 -1.40 -0.15 -0.20 0.20 -0.85 0.70 -1.45 0.50 -0.60 1.45 -1.85 2.10 -2.80 0.65 -0.95 1.35 -1.75 1.60 -1.75 0.20 0 0.60 -0.55 0.85 -1.25 0.25 -0.70 0.75 -1.25 1.15 -1.25 0.35 0 1.75 -1.25 3.10 -2.75 1.30 -1.50 2.60 -2.75 2.80 -2.75 0.25 0 1.85 -1.05 3.55 -2.35 3 -2.20 13.70 -7.65 15.05 -7.65 0.35 0 1.50 -0.45 2.60 -1 1.10 -0.55 2.75 -1 3.75 -1 1 0 2.05 -0.25 2.35 -0.55 0.30 -0.30 2 -0.75 3.75 -0.95 1.75 -0.25 4.75 -0.80 6.65 -1.25 6.70 -1.60 28.75 -1 28.75 0.80 0 0.25 4 0.45 8.90 0.45 8.85 0 8.85 0 11.35 -3.55 3.05 -4.30 8.65 -9.75 12 -11.65 3.65 -2.05 9.75 -4.30 11.60 -4.30 0.90 0 1.65 -0.20 1.65 -0.40 0 -0.80 5.05 -1.60 9.80 -1.60 2.80 0 4.70 -0.20 4.70 -0.50 0 -0.85 3.30 -0.55 4.15 0.40 1.10 1.20 1.25 22.15 0.15 23.05 -0.50 0.40 -2.85 0.55 -7.40 0.50 -6.45 -0.10 -10.50 0.45 -11.20 1.60 -0.15 0.30 -1.10 0.40 -2.15 0.25 -1.35 -0.20 -2.50 0.10 -4.55 1.10 -2.75 1.35 -2.75 1.35 -2.90 7.50 -0.15 6.15 -0.15 6.15 2.10 9.75 3.20 5.15 6.55 13.05 7.10 16.60 0.05 0.55 0.50 2.60 1 4.50 1 4.05 1.50 16.40 0.75 18 -0.55 1.15 -1.45 5.45 -1.45 7.05 -0.05 1.80 -1.10 5.20 -1.65 5.20 -0.30 0 -0.40 0.20 -0.25 0.45 0.40 0.60 -3.25 7.95 -5.70 11.60 -6.15 9.05 -18.30 17.45 -29.50 20.50 -2.05 0.60 -4.20 1.15 -4.75 1.30 -0.55 0.15 -1.25 0.50 -1.55 0.75 -0.30 0.20 -1.55 0.40 -2.75 0.35 -1.20 -0.05 -5.20 0.20 -8.80 0.55 -5.40 0.50 -7.90 0.50 -13.25 0 -3.65 -0.35 -7.60 -0.60 -8.75 -0.55 -1.20 0.05 -2.15 -0.10 -2.15 -0.35 0 -0.50 -4.60 -1.75 -7 -1.90 -2.15 -0.10 -7.75 2.60 -10.50 5.10 -2.75 2.50 -3.80 4.50 -4.20 7.75 -0.25 2.55 -0.15 3 1.15 4.80 1.30 1.85 2.60 2.65 7.80 4.90 1.45 0.65 3.25 0.95 8.40 1.60 1.30 0.15 2.50 0.50 2.65 0.70 0.15 0.25 9.30 0.45 20.40 0.45 19.25 0 27.75 0.45 29.15 1.60 0.30 0.25 2 0.40 3.75 0.35 3.15 -0.10 8.70 0.80 9.65 1.65 0.25 0.20 1.15 0.40 2 0.40 3.85 0 13.95 4.30 19.55 8.30 9.75 6.90 15.45 20 14.40 32.95 -0.20 2.50 -0.40 5.55 -0.45 6.80 -0.15 2.55 -1.20 5.95 -1.90 5.95 -0.20 0 -0.25 0.25 -0.10 0.50 0.60 0.95 -3.95 8.45 -7.60 12.60 -2 2.30 -3.65 4.30 -3.65 4.50 0 0.20 1.20 0.40 2.65 0.50 2.60 0.15 2.60 0.15 2.75 6.50 0.15 6.35 0.15 6.35 -16.55 6.50 -14.85 0.15 -16.80 0.25 -18 1.05 -0.80 0.50 -2.25 0.85 -3.80 0.85 -2.70 0 -7.65 0.95 -8.10 1.60 -0.30 0.45 -30.65 0.85 -40.45 0.55 z "/>
  <path d="M 374.50 1.10 c 0 -0.70 0.30 -1.10 0.80 -1.10 0.70 0 0.75 0.15 0.15 0.90 -0.35 0.45 -0.75 0.95 -0.80 1.05 -0.10 0.10 -0.15 -0.25 -0.15 -0.85 z "/>
 </g>
</svg>